<svg width="1200" height="630" xmlns="http://www.w3.org/2000/svg">
  <!-- Background gradient -->
  <defs>
    <linearGradient id="bgGradient" x1="0%" y1="0%" x2="100%" y2="100%">
      <stop offset="0%" style="stop-color:#1976D2;stop-opacity:1" />
      <stop offset="100%" style="stop-color:#00ACC1;stop-opacity:1" />
    </linearGradient>
  </defs>
  
  <rect width="1200" height="630" fill="url(#bgGradient)"/>
  
  <!-- Pattern overlay -->
  <pattern id="pattern" x="0" y="0" width="60" height="60" patternUnits="userSpaceOnUse">
    <g fill="white" fill-opacity="0.05">
      <path d="M36 34v-4h-2v4h-4v2h4v4h2v-4h4v-2h-4zm0-30V0h-2v4h-4v2h4v4h2V6h4V4h-4zM6 34v-4H4v4H0v2h4v4h2v-4h4v-2H6zM6 4V0H4v4H0v2h4v4h2V6h4V4H6z"/>
    </g>
  </pattern>
  <rect width="1200" height="630" fill="url(#pattern)"/>
  
  <!-- Logo placeholder -->
  <circle cx="600" cy="200" r="60" fill="white" fill-opacity="0.9"/>
  <text x="600" y="210" text-anchor="middle" font-family="Arial" font-size="48" font-weight="bold" fill="#1976D2">CRPG</text>
  
  <!-- Title -->
  <text x="600" y="340" text-anchor="middle" font-family="Arial" font-size="48" font-weight="300" fill="white">
    Center for Regulation, Policy and Governance
  </text>
  
  <!-- Tagline -->
  <text x="600" y="400" text-anchor="middle" font-family="Arial" font-size="24" fill="white" fill-opacity="0.9">
    Evidence-based research for sustainable development
  </text>
  
  <!-- Website -->
  <text x="600" y="520" text-anchor="middle" font-family="Arial" font-size="20" fill="white" fill-opacity="0.8">
    www.crpg.info
  </text>
</svg>